<svg width="690" height="291" viewBox="0 0 690 291" fill="none" xmlns="http://www.w3.org/2000/svg">
  <path d="M128.5 229L42.7 118.6L125.8 17.2H184L90.4 127.3V108.1L187 229H128.5ZM0.400001 229V17.2H47.5V229H0.400001ZM265.326 232.3C250.326 232.3 236.726 229 224.526 222.4C212.526 215.6 203.026 206.4 196.026 194.8C189.026 183.2 185.526 170.2 185.526 155.8C185.526 141.4 189.026 128.5 196.026 117.1C203.026 105.7 212.526 96.7 224.526 90.1C236.526 83.3 250.126 79.9 265.326 79.9C280.526 79.9 294.126 83.2 306.126 89.8C318.126 96.4 327.626 105.5 334.626 117.1C341.626 128.5 345.126 141.4 345.126 155.8C345.126 170.2 341.626 183.2 334.626 194.8C327.626 206.4 318.126 215.6 306.126 222.4C294.126 229 280.526 232.3 265.326 232.3ZM265.326 190.6C271.926 190.6 277.726 189.2 282.726 186.4C287.726 183.4 291.526 179.3 294.126 174.1C296.926 168.7 298.326 162.6 298.326 155.8C298.326 149 296.926 143.1 294.126 138.1C291.326 132.9 287.426 128.9 282.426 126.1C277.626 123.1 271.926 121.6 265.326 121.6C258.926 121.6 253.226 123.1 248.226 126.1C243.226 128.9 239.326 132.9 236.526 138.1C233.726 143.3 232.326 149.3 232.326 156.1C232.326 162.7 233.726 168.7 236.526 174.1C239.326 179.3 243.226 183.4 248.226 186.4C253.226 189.2 258.926 190.6 265.326 190.6ZM243.726 66.7L228.726 44.8L276.426 0.0999966L301.626 35.5L243.726 66.7ZM591.395 229.6L531.395 83.2H580.895L618.995 199.3H600.695L639.695 83.2H689.195L626.795 229.6H591.395ZM553.895 290.5L597.695 196L626.795 229.6L600.995 290.5H553.895Z" fill="#E3EDF7"/>
  <path d="M430.077 232C416.277 232 403.977 228.7 393.177 222.1C382.577 215.5 374.177 206.5 367.977 195.1C361.977 183.7 358.977 170.7 358.977 156.1C358.977 141.5 361.977 128.5 367.977 117.1C374.177 105.7 382.577 96.7 393.177 90.1C403.977 83.5 416.277 80.2 430.077 80.2C440.077 80.2 449.077 82.1 457.077 85.9C465.277 89.7 471.977 95 477.177 101.8C482.577 108.4 485.577 116 486.177 124.6V186.1C485.577 194.7 482.677 202.5 477.477 209.5C472.277 216.3 465.577 221.8 457.377 226C449.177 230 440.077 232 430.077 232ZM438.177 190.6C444.777 190.6 450.477 189.2 455.277 186.4C460.077 183.4 463.877 179.3 466.677 174.1C469.477 168.9 470.877 162.9 470.877 156.1C470.877 149.3 469.477 143.4 466.677 138.4C464.077 133.2 460.277 129.1 455.277 126.1C450.477 123.1 444.877 121.6 438.477 121.6C432.077 121.6 426.377 123.1 421.377 126.1C416.577 129.1 412.677 133.2 409.677 138.4C406.877 143.6 405.477 149.5 405.477 156.1C405.477 162.7 406.877 168.6 409.677 173.8C412.477 179 416.377 183.1 421.377 186.1C426.377 189.1 431.977 190.6 438.177 190.6ZM514.077 229H469.077V189.7L475.977 154.3L468.177 118.9V11.2H514.077V229Z" fill="#1ED760"/>
  </svg>
  